<svg width="28" height="19" viewBox="0 0 28 19" fill="none" xmlns="http://www.w3.org/2000/svg">
<rect width="28" height="19" rx="5" fill="#F43F5E"/>
<path d="M17 9.5L11 13V6L17 9.5Z" fill="white"/>
<path d="M22 15.1662C22 15.889 21.7239 16.5845 21.2281 17.1104C20.7323 17.6363 20.0543 17.9529 19.3329 17.9953L19.1667 18H18.2222C17.4995 18 16.8041 17.7239 16.2783 17.228C15.7525 16.7321 15.436 16.054 15.3936 15.3324L15.3889 15.1662V12.3323C15.3888 11.6095 15.665 10.9139 16.1608 10.388C16.6566 9.86212 17.3345 9.54558 18.056 9.50318L18.2222 9.49845H19.1667C19.4982 9.49845 19.8164 9.55513 20.1111 9.65998V9.49845C20.112 7.76383 19.4313 6.09835 18.2158 4.86102C17.0003 3.62369 15.3474 2.91362 13.6133 2.88388C11.8793 2.85414 10.203 3.50711 8.94583 4.70203C7.68866 5.89695 6.95128 7.53812 6.89267 9.27174L6.88889 9.49845V9.65904C7.12626 9.57528 7.37528 9.52396 7.63594 9.50506L7.83333 9.49845H8.77778C9.50048 9.49841 10.1959 9.77459 10.7217 10.2705C11.2475 10.7664 11.564 11.4445 11.6064 12.166L11.6111 12.3323V15.1662C11.6112 15.889 11.335 16.5845 10.8392 17.1104C10.3434 17.6363 9.66545 17.9529 8.944 17.9953L8.77778 18H7.83333C7.11063 18 6.41524 17.7239 5.88942 17.228C5.3636 16.7321 5.04712 16.054 5.00472 15.3324L5 15.1662V9.49845C5.00081 7.26592 5.87961 5.1233 7.44659 3.53336C9.01357 1.94343 11.143 1.03379 13.3748 1.00092C15.6067 0.968051 17.762 1.81458 19.3751 3.35768C20.9882 4.90078 21.9297 7.01659 21.9962 9.24813L22 9.49845V15.1662Z" fill="black"/>
</svg>
